Patient4_TMGait_0pt3_03_right_15_GRF.mot
version=1
nRows=64
nColumns=19
inDegrees=no
endheader
time	F1x	F1y	F1z	M1x	M1y	M1z	F2x	F2y	F2z	M2x	M2y	M2z	EC1x	EC1y	EC1z	EC2x	EC2y	EC2z
28.26	-1.9618	773.5817	53.0769	-249.2123	-49.1354	702.2675	-2.8898	30.722	-4.9127	10.9241	7.8405	26.2184	-0.0592	0.0182	-0.0073	-0.0462	0.0165	0.9585
28.2799	-1.6862	785.7749	54.2993	-252.9228	-49.2354	712.0314	-3.1368	24.2636	-3.7714	8.7202	6.1772	20.7044	-0.0592	0.0182	-0.0073	-0.0462	0.0165	0.9585
28.2999	-1.3193	798.5752	55.6418	-256.7448	-49.4196	721.7789	-3.038	17.8454	-2.6507	6.5007	4.5169	15.26	-0.0592	0.0182	-0.0073	-0.0462	0.0165	0.9585
28.3198	-0.77415	810.4065	56.9998	-260.1826	-49.6051	730.0943	-2.5776	12.0627	-1.6458	4.4778	2.9766	10.3823	-0.0592	0.0182	-0.0073	-0.0462	0.0165	0.9585
28.3397	0.046769	819.6893	58.2677	-262.7469	-49.6756	735.6162	-1.9076	7.346	-0.83267	2.8118	1.6773	6.4229	-0.0592	0.0182	-0.0073	-0.0462	0.0165	0.9585
28.3596	1.2286	825.1405	59.3486	-264.0422	-49.5131	737.2791	-1.2197	3.8487	-0.24335	1.5659	0.69341	3.5011	-0.0592	0.0182	-0.0073	-0.0462	0.0165	0.9585
28.3796	2.8224	826.0201	60.1662	-263.8437	-49.0267	734.514	-0.62575	1.4637	0.13645	0.70656	0.025257	1.5098	-0.0592	0.0182	-0.0073	-0.0462	0.0165	0.9585
28.3995	4.8097	822.2574	60.665	-262.1439	-48.1697	727.3613	-0.1728	-0.05506	0.34564	0.14695	-0.37351	0.22678	-0.0592	0.0182	-0.0073	-0.0462	0.0165	0.9585
28.4194	7.1084	814.4512	60.8066	-259.155	-46.9357	716.4527	0.13564	-1.0086	0.4298	-0.22201	-0.56704	-0.60524	-0.0592	0.0182	-0.0073	-0.0462	0.0165	0.9585
28.4394	9.6247	803.7548	60.5804	-255.2698	-45.3506	702.8795	0.32023	-1.7001	0.43191	-0.51253	-0.61982	-1.2461	-0.0592	0.0182	-0.0073	-0.0462	0.0165	0.9585
28.4593	12.2782	791.622	60.0198	-250.9734	-43.4744	687.9613	0.41023	-2.3979	0.38997	-0.8245	-0.59152	-1.927	-0.0592	0.0182	-0.0073	-0.0462	0.0165	0.9585
28.4792	15.0132	779.5001	59.2108	-246.7422	-41.4019	672.9782	0.43847	-3.3078	0.33227	-1.2335	-0.52935	-2.8233	-0.0592	0.0182	-0.0073	-0.0462	0.0165	0.9585
28.4991	17.8037	768.6047	58.2734	-242.9691	-39.2449	658.9835	0.4405	-4.5397	0.2795	-1.7789	-0.46826	-4.0275	-0.0592	0.0182	-0.0073	-0.0462	0.0165	0.9585
28.5191	20.6411	759.7542	57.3357	-239.9122	-37.1135	646.6831	0.45103	-6.0721	0.24781	-2.4489	-0.43623	-5.5158	-0.0592	0.0182	-0.0073	-0.0462	0.0165	0.9585
28.539	23.5193	753.2729	56.5162	-237.6633	-35.1049	636.3711	0.50355	-7.7059	0.24843	-3.158	-0.45307	-7.1026	-0.0592	0.0182	-0.0073	-0.0462	0.0165	0.9585
28.5589	26.4242	748.9809	55.9055	-236.1454	-33.2919	627.926	0.62545	-9.0083	0.28746	-3.723	-0.53162	-8.3793	-0.0592	0.0182	-0.0073	-0.0462	0.0165	0.9585
28.5789	29.3047	746.2375	55.5574	-235.1282	-31.7284	620.8679	0.83772	-9.2582	0.36325	-3.8382	-0.679	-8.6588	-0.0592	0.0182	-0.0073	-0.0462	0.0165	0.9585
28.5988	32.0694	744.0487	55.4947	-234.2657	-30.4572	614.4509	1.1535	-7.4015	0.46799	-3.0572	-0.89293	-6.9426	-0.0592	0.0182	-0.0073	-0.0462	0.0165	0.9585
28.6187	34.5938	741.1913	55.7026	-233.1393	-29.5041	607.7707	1.5699	-2.0458	0.59095	-0.79185	-1.1558	-1.9046	-0.0592	0.0182	-0.0073	-0.0462	0.0165	0.9585
28.6386	36.7033	736.2653	56.1288	-231.2749	-28.8858	599.8119	2.0515	8.4668	0.71535	3.656	-1.4291	8.0393	-0.0592	0.0182	-0.0073	-0.0462	0.0165	0.9585
28.6586	38.1845	727.7726	56.6815	-228.1733	-28.6048	589.5005	2.519	25.8426	0.81401	11.0051	-1.6442	24.5214	-0.0592	0.0182	-0.0073	-0.0462	0.0165	0.9585
28.6785	38.828	714.2983	57.2074	-223.3763	-28.6204	575.8309	2.8316	51.4346	0.84311	21.8255	-1.6911	48.8492	-0.0592	0.0182	-0.0073	-0.0462	0.0165	0.9585
28.6984	38.4719	694.685	57.4869	-216.5296	-28.8333	557.9723	2.7144	85.6521	0.74013	36.2871	-1.3892	81.4451	-0.0592	0.0182	-0.0073	-0.0462	0.0165	0.9585
28.7184	37.0519	668.2004	57.2505	-207.4384	-29.08	535.3655	1.5759	127.2652	0.40207	53.8587	-0.39764	121.184	-0.0592	0.0182	-0.0073	-0.0462	0.0165	0.9585
28.7383	34.6776	634.8343	56.2405	-196.1617	-29.1424	507.9448	-1.2014	173.158	-0.53117	73.1829	1.872	165.1784	-0.0592	0.0182	-0.0073	-0.0462	0.0165	0.9585
28.7582	31.6829	595.5728	54.326	-183.0884	-28.813	476.3456	-5.5992	219.9061	-2.4607	92.7598	5.7759	210.2111	-0.0592	0.0182	-0.0073	-0.0462	0.0165	0.9585
28.7781	28.5531	552.1142	51.5624	-168.8287	-27.9628	441.7056	-11.2315	266.2584	-5.4467	112.0162	11.2037	255.0605	-0.0592	0.0182	-0.0073	-0.0462	0.0165	0.9585
28.7981	25.7017	506.0505	48.0993	-153.9421	-26.5482	405.0921	-17.6469	312.6546	-9.3079	131.1153	17.7965	300.0732	-0.0592	0.0182	-0.0073	-0.0462	0.0165	0.9585
28.818	23.301	458.3114	44.0711	-138.7539	-24.5875	367.1252	-24.3215	359.5596	-13.7206	150.2527	25.0264	345.5686	-0.0592	0.0182	-0.0073	-0.0462	0.0165	0.9585
28.8379	21.3114	409.2309	39.5887	-123.3731	-22.1451	328.0264	-30.6861	406.8076	-18.3689	169.3674	32.3447	391.22	-0.0592	0.0182	-0.0073	-0.0462	0.0165	0.9585
28.8579	19.5832	358.9597	34.7704	-107.8277	-19.327	287.9146	-36.2382	453.6839	-23.0547	188.1639	39.333	436.1669	-0.0592	0.0182	-0.0073	-0.0462	0.0165	0.9585
28.8778	17.9381	307.859	29.7542	-92.1961	-16.2786	247.1017	-40.6424	499.2063	-27.7172	206.2265	45.7664	479.3094	-0.0592	0.0182	-0.0073	-0.0462	0.0165	0.9585
28.8977	16.2436	256.7414	24.7055	-76.6865	-13.1684	206.2597	-43.7751	542.5735	-32.349	223.2167	51.5565	519.7442	-0.0592	0.0182	-0.0073	-0.0462	0.0165	0.9585
28.9176	14.4488	206.8953	19.8138	-61.6505	-10.1654	166.4296	-45.6678	583.5752	-36.9062	239.0505	56.6503	557.1647	-0.0592	0.0182	-0.0073	-0.0462	0.0165	0.9585
28.9376	12.5725	159.9258	15.2661	-47.5403	-7.422	128.8908	-46.4391	622.4433	-41.3061	253.8327	61.0004	591.7316	-0.0592	0.0182	-0.0073	-0.0462	0.0165	0.9585
28.9575	10.6736	117.4998	11.2246	-34.8344	-5.0577	94.9577	-46.2649	659.2589	-45.4561	267.611	64.5835	623.5334	-0.0592	0.0182	-0.0073	-0.0462	0.0165	0.9585
28.9774	8.8138	81.0608	7.8175	-23.9501	-3.1552	65.7662	-45.3415	693.4674	-49.2548	280.1796	67.3911	652.1427	-0.0592	0.0182	-0.0073	-0.0462	0.0165	0.9585
28.9974	7.0068	51.5036	5.1117	-15.143	-1.7549	42.0309	-43.8216	723.7913	-52.5665	291.0556	69.3789	676.5107	-0.0592	0.0182	-0.0073	-0.0462	0.0165	0.9585
29.0173	5.2507	29.0049	3.0887	-8.4565	-0.83262	23.9098	-41.7619	748.5891	-55.1926	299.6347	70.421	695.2667	-0.0592	0.0182	-0.0073	-0.0462	0.0165	0.9585
29.0372	3.6032	13.0898	1.6616	-3.7423	-0.29693	11.0454	-39.1475	766.4046	-56.9075	305.4128	70.3452	707.2162	-0.0592	0.0182	-0.0073	-0.0462	0.0165	0.9585
29.0571	2.1699	2.8196	0.71622	-0.71564	-0.026652	2.7048	-35.9501	776.4026	-57.5256	308.1517	69.0142	711.7345	-0.0592	0.0182	-0.0073	-0.0462	0.0165	0.9585
29.0771	1.0368	-2.9968	0.15177	0.98285	0.070752	-2.0569	-32.1775	778.646	-56.963	307.9741	66.3985	709.013	-0.0592	0.0182	-0.0073	-0.0462	0.0165	0.9585
29.097	0.22123	-5.6027	-0.12091	1.7266	0.054209	-4.2281	-27.9101	774.1641	-55.258	305.3764	62.6073	700.1133	-0.0592	0.0182	-0.0073	-0.0462	0.0165	0.9585
29.1169	-0.30788	-6.1174	-0.19135	1.8505	-0.027808	-4.7045	-23.32	764.789	-52.5581	301.1535	57.8776	686.8261	-0.0592	0.0182	-0.0073	-0.0462	0.0165	0.9585
29.1369	-0.60764	-5.4378	-0.13913	1.6222	-0.13674	-4.206	-18.6734	752.8253	-49.0924	296.2612	52.5451	671.3651	-0.0592	0.0182	-0.0073	-0.0462	0.0165	0.9585
29.1568	-0.74361	-4.2124	-0.026678	1.2357	-0.24639	-3.2527	-14.2959	740.6248	-45.1432	291.6449	47.004	655.97	-0.0592	0.0182	-0.0073	-0.0462	0.0165	0.9585
29.1767	-0.77516	-2.8651	0.099157	0.81872	-0.3383	-2.1877	-10.5195	730.2441	-41.0259	288.1029	41.6664	642.5893	-0.0592	0.0182	-0.0073	-0.0462	0.0165	0.9585
29.1966	-0.74681	-1.6419	0.20965	0.44529	-0.40396	-1.2166	-7.6312	723.2943	-37.0577	286.2243	36.9175	632.7282	-0.0592	0.0182	-0.0073	-0.0462	0.0165	0.9585
29.2166	-0.68987	-0.65866	0.2919	0.14954	-0.44507	-0.4351	-5.8204	720.9615	-33.5173	286.4061	33.0581	627.4428	-0.0592	0.0182	-0.0073	-0.0462	0.0165	0.9585
29.2365	-0.62722	0.058581	0.34436	-0.06142	-0.46913	0.1359	-5.1299	724.1051	-30.5943	288.9026	30.2426	627.4106	-0.0592	0.0182	-0.0073	-0.0462	0.0165	0.9585
29.2564	-0.57366	0.53867	0.37093	-0.1958	-0.4816	0.51694	-5.4494	733.1272	-28.393	293.7858	28.4833	632.8223	-0.0592	0.0182	-0.0073	-0.0462	0.0165	0.9585
29.2764	-0.5338	0.83247	0.3785	-0.27005	-0.48508	0.74755	-6.523	747.7866	-26.9401	300.8939	27.667	643.2354	-0.0592	0.0182	-0.0073	-0.0462	0.0165	0.9585
29.2963	-0.50502	0.99503	0.37299	-0.30259	-0.48194	0.87023	-7.9981	767.3282	-26.1336	309.9017	27.5395	657.7184	-0.0592	0.0182	-0.0073	-0.0462	0.0165	0.9585
29.3162	-0.48528	1.0744	0.35766	-0.3091	-0.47493	0.91966	-9.4893	790.6306	-25.7463	320.3655	27.7361	675.0391	-0.0592	0.0182	-0.0073	-0.0462	0.0165	0.9585
29.3361	-0.47277	1.1068	0.33668	-0.3016	-0.46588	0.92742	-10.6473	816.0737	-25.5298	331.6405	27.8925	693.6182	-0.0592	0.0182	-0.0073	-0.0462	0.0165	0.9585
29.3561	-0.46335	1.1177	0.3128	-0.28905	-0.45396	0.91814	-11.2269	841.4148	-25.2966	342.8089	27.7396	711.4865	-0.0592	0.0182	-0.0073	-0.0462	0.0165	0.9585
29.376	-0.45303	1.1192	0.28834	-0.27635	-0.43909	0.90571	-11.1328	863.8677	-24.9535	352.7044	27.1496	726.3766	-0.0592	0.0182	-0.0073	-0.0462	0.0165	0.9585
29.3959	-0.44441	1.117	0.26822	-0.2655	-0.42489	0.89871	-10.4337	880.4118	-24.5075	360.0428	26.1477	735.9684	-0.0592	0.0182	-0.0073	-0.0462	0.0165	0.9585
29.4159	-0.44224	1.1096	0.25802	-0.25639	-0.41326	0.89492	-9.3074	888.4174	-24.0263	363.6937	24.8639	738.345	-0.0592	0.0182	-0.0073	-0.0462	0.0165	0.9585
29.4358	-0.45146	1.0818	0.26195	-0.24522	-0.40854	0.88197	-7.9133	886.3505	-23.5962	362.9897	23.4455	732.4826	-0.0592	0.0182	-0.0073	-0.0462	0.0165	0.9585
29.4557	-0.47554	1.0099	0.28458	-0.22456	-0.42028	0.83801	-6.3067	874.1883	-23.3047	357.9079	22.0027	718.5265	-0.0592	0.0182	-0.0073	-0.0462	0.0165	0.9585
29.4756	-0.51335	0.86022	0.32872	-0.18358	-0.45532	0.72833	-4.464	853.3896	-23.2406	349.059	20.6199	697.7524	-0.0592	0.0182	-0.0073	-0.0462	0.0165	0.9585
29.4956	-0.5553	0.59381	0.39209	-0.10886	-0.5111	0.51055	-2.3525	826.5251	-23.4743	337.5349	19.3609	672.2787	-0.0592	0.0182	-0.0073	-0.0462	0.0165	0.9585
29.5155	-0.58887	0.17256	0.469	0.011492	-0.57829	0.14398	0.021815	796.7261	-24.0351	324.6729	18.2687	644.6324	-0.0592	0.0182	-0.0073	-0.0462	0.0165	0.9585
